<svg width="130" height="130" viewBox="0 0 130 130" fill="none" xmlns="http://www.w3.org/2000/svg">
<circle cx="65" cy="65" r="65" fill="#EAEAEA"/>
<path d="M77.9286 45.3333C77.9286 48.8696 76.5138 52.2609 73.9954 54.7614C71.4771 57.2619 68.0615 58.6667 64.5 58.6667C60.9385 58.6667 57.5229 57.2619 55.0046 54.7614C52.4862 52.2609 51.0714 48.8696 51.0714 45.3333C51.0714 41.7971 52.4862 38.4057 55.0046 35.9052C57.5229 33.4048 60.9385 32 64.5 32C68.0615 32 71.4771 33.4048 73.9954 35.9052C76.5138 38.4057 77.9286 41.7971 77.9286 45.3333V45.3333ZM64.5 68.6667C58.2674 68.6667 52.2901 71.125 47.883 75.5008C43.4759 79.8767 41 85.8116 41 92H88C88 85.8116 85.5241 79.8767 81.117 75.5008C76.7099 71.125 70.7326 68.6667 64.5 68.6667V68.6667Z" stroke="#C7C7C7" stroke-width="5" stroke-linecap="round" stroke-linejoin="round"/>
</svg>
