<svg width="283" height="204" viewBox="0 0 283 204" fill="none" xmlns="http://www.w3.org/2000/svg">
<path d="M112.866 141.7L87.5922 87.6049C87.5268 87.465 87.4641 87.3241 87.404 87.1825C86.6088 85.3055 86.2871 83.2825 86.4666 81.2688C86.6597 79.1031 87.4265 77.015 88.699 75.1899L121.239 28.5603C122.767 26.3698 124.96 24.6476 127.542 23.6111C130.124 22.5745 132.979 22.2701 135.747 22.7362L194.699 32.6375C197.006 33.0258 199.173 33.9359 201.01 35.287C202.717 36.5433 204.089 38.1447 205.021 39.9665C205.092 40.104 205.16 40.2427 205.225 40.3827L230.499 94.4783C232 97.6915 232.063 101.326 230.673 104.582C229.284 107.838 226.555 110.449 223.089 111.841L131.597 148.569C128.13 149.961 124.209 150.019 120.697 148.731C117.184 147.443 114.367 144.914 112.866 141.7Z" fill="#C3DBF5"/>
<path d="M112.866 141.7L87.5922 87.6049C86.6602 85.6109 86.2736 83.4345 86.4666 81.2688C86.6597 79.1031 87.4265 77.015 88.699 75.1899L121.239 28.5603C122.767 26.3698 124.96 24.6476 127.542 23.6111C130.124 22.5746 132.979 22.2701 135.747 22.7362L194.699 32.6375C197.006 33.0258 199.173 33.9359 201.01 35.287C202.846 36.6381 204.294 38.3884 205.225 40.3827L230.499 94.4783M112.866 141.7C114.367 144.914 117.184 147.443 120.697 148.731C124.209 150.019 128.13 149.961 131.597 148.569L223.089 111.841C226.555 110.449 229.284 107.838 230.673 104.582C232.063 101.326 232 97.6915 230.499 94.4783M112.866 141.7L144.242 96.7323M230.499 94.4783L173.651 84.9268M144.242 96.7323L87.394 87.1808M144.242 96.7323L153.843 98.3455C156.612 98.8116 159.467 98.5071 162.049 97.4706C164.631 96.4341 166.824 94.7119 168.351 92.5214L173.651 84.9268M173.651 84.9268L205.027 39.9586" stroke="white" stroke-width="6.28524" stroke-linecap="round" stroke-linejoin="round"/>
<path d="M3.74684 171.932L16.0111 136.789C16.0428 136.698 16.0762 136.607 16.1112 136.518C16.5752 135.33 17.3271 134.255 18.3107 133.376C19.3685 132.432 20.6615 131.743 22.075 131.373L58.2025 121.922C59.8991 121.477 61.6996 121.508 63.377 122.011C65.0545 122.514 66.5336 123.466 67.6278 124.748L90.9389 152.022C91.8506 153.09 92.4639 154.349 92.7244 155.689C92.9666 156.935 92.8968 158.215 92.5222 159.43C92.4939 159.521 92.4639 159.613 92.4322 159.704L80.1679 194.847C79.4394 196.935 77.8462 198.668 75.7386 199.667C73.6311 200.666 71.1819 200.847 68.9299 200.172L9.4913 182.349C7.23929 181.674 5.3689 180.197 4.29161 178.244C3.21431 176.29 3.01835 174.02 3.74684 171.932Z" fill="#C3DBF5"/>
<path d="M3.74684 171.932L16.0111 136.789C16.463 135.493 17.2529 134.321 18.3107 133.376C19.3685 132.432 20.6615 131.743 22.075 131.373L58.2025 121.922C59.8991 121.477 61.6996 121.508 63.377 122.011C65.0545 122.514 66.5336 123.466 67.6278 124.748L90.9389 152.022C91.8506 153.09 92.4639 154.349 92.7244 155.689C92.9849 157.029 92.8845 158.408 92.4322 159.704L80.1679 194.847M3.74684 171.932C3.01835 174.02 3.21431 176.29 4.2916 178.244C5.3689 180.197 7.23929 181.674 9.4913 182.349L68.9299 200.172C71.1819 200.847 73.6311 200.666 75.7386 199.667C77.8462 198.668 79.4394 196.935 80.1679 194.847M3.74684 171.932L38.585 162.816M80.1679 194.847L57.6902 168.544M38.585 162.816L16.1073 136.513M38.585 162.816L42.3812 167.258C43.4754 168.539 44.9545 169.492 46.632 169.995C48.3094 170.498 50.1099 170.529 51.8065 170.084L57.6902 168.544M57.6902 168.544L92.5283 159.428" stroke="white" stroke-width="6.28524" stroke-linecap="round" stroke-linejoin="round"/>
<path d="M218.171 189.591L216.226 161.209C216.221 161.135 216.217 161.062 216.215 160.988C216.184 160.015 216.393 159.044 216.826 158.149C217.293 157.187 218.004 156.343 218.898 155.692L241.753 139.073C242.826 138.292 244.118 137.822 245.465 137.721C246.812 137.62 248.155 137.893 249.324 138.506L274.211 151.548C275.185 152.059 276.004 152.788 276.597 153.671C277.148 154.492 277.487 155.422 277.59 156.39C277.598 156.463 277.604 156.536 277.609 156.609L279.554 184.992C279.67 186.678 279.062 188.349 277.865 189.637C276.667 190.925 274.979 191.724 273.17 191.86L225.427 195.437C223.618 195.573 221.838 195.033 220.477 193.937C219.116 192.84 218.287 191.277 218.171 189.591Z" fill="#C3DBF5"/>
<path d="M218.171 189.591L216.226 161.209C216.154 160.162 216.36 159.111 216.826 158.149C217.293 157.187 218.004 156.343 218.898 155.692L241.753 139.073C242.826 138.292 244.118 137.822 245.465 137.721C246.812 137.62 248.155 137.893 249.324 138.506L274.211 151.548C275.185 152.059 276.004 152.788 276.597 153.671C277.19 154.554 277.537 155.563 277.609 156.609L279.554 184.992M218.171 189.591C218.287 191.277 219.116 192.84 220.477 193.937C221.838 195.033 223.618 195.573 225.427 195.437L273.17 191.86C274.979 191.724 276.667 190.925 277.865 189.637C279.062 188.349 279.67 186.678 279.554 184.992M218.171 189.591L240.21 173.564M279.554 184.992L255.555 172.414M240.21 173.564L216.21 160.986M240.21 173.564L244.263 175.688C245.431 176.301 246.774 176.575 248.121 176.474C249.469 176.373 250.76 175.902 251.833 175.121L255.555 172.414M255.555 172.414L277.594 156.387" stroke="white" stroke-width="6.28524" stroke-linecap="round" stroke-linejoin="round"/>
</svg>
