<svg width="300" height="240" viewBox="0 0 300 240" fill="none" xmlns="http://www.w3.org/2000/svg">
<path d="M225.059 26.8537C230.394 26.8537 234.719 22.529 234.719 17.1942C234.719 11.8593 230.394 7.53461 225.059 7.53461C219.724 7.53461 215.399 11.8593 215.399 17.1942C215.399 22.529 219.724 26.8537 225.059 26.8537Z" fill="#2F2E41"/>
<path d="M218.233 23.0879C218.233 23.0879 216.836 40.6826 215.159 40.6826C213.482 40.6826 234.72 39.8546 234.72 39.8546C234.72 39.8546 225.778 28.2628 230.249 24.5369C234.719 20.811 218.233 23.0879 218.233 23.0879Z" fill="#9F616A"/>
<path opacity="0.1" d="M218.233 23.0879C218.233 23.0879 216.836 40.6826 215.159 40.6826C213.482 40.6826 234.72 39.8546 234.72 39.8546C234.72 39.8546 225.778 28.2628 230.249 24.5369C234.719 20.811 218.233 23.0879 218.233 23.0879Z" fill="black"/>
<path d="M179.159 225.402C159.726 225.402 140.894 218.664 125.873 206.337C110.851 194.009 100.569 176.854 96.7776 157.795C92.9864 138.735 95.921 118.951 105.081 101.813C114.242 84.6751 129.061 71.2435 147.015 63.8069C164.968 56.3703 184.944 55.3889 203.54 61.0299C222.136 66.6708 238.201 78.5851 248.997 94.7427C259.793 110.9 264.653 130.302 262.748 149.641C260.844 168.98 252.292 187.06 238.551 200.801C230.77 208.625 221.514 214.828 211.319 219.051C201.124 223.274 190.193 225.432 179.159 225.402ZM179.159 58.2843C133.324 58.2843 96.0348 95.5735 96.0348 141.408C96.0348 187.243 133.324 224.532 179.159 224.532C224.993 224.532 262.282 187.243 262.282 141.408C262.282 95.5735 224.993 58.2843 179.159 58.2843Z" fill="#353535"/>
<path d="M243.323 61.5833L233.559 64.3772L247.197 63.7551C250.263 63.5885 253.276 64.6022 255.617 66.5881C258.047 68.6916 260.006 72.0282 258.12 76.9605C254.348 86.8251 248.545 96.1094 248.545 96.1094L244.773 103.363C244.773 103.363 236.94 104.523 236.65 102.202C236.359 99.8811 236.65 98.7206 238.1 97.5601C239.551 96.3995 240.421 94.0784 240.421 92.9179C240.421 91.7574 240.131 90.5968 241.002 90.0165C241.872 89.4363 242.162 88.5659 242.162 86.8251C242.162 85.0842 247.195 77.4333 247.195 77.4333C247.195 77.4333 236.65 73.769 232.108 76.853C227.567 79.937 218.371 93.4982 218.371 93.4982C217.768 94.1292 217.262 94.8472 216.872 95.6282C216.406 96.5348 215.761 97.3372 214.975 97.987C214.132 98.7285 214.909 100.771 215.18 101.042C215.47 101.332 218.371 112.937 218.371 112.937C218.371 112.937 221.563 118.45 218.081 118.74C214.599 119.03 211.408 119.32 211.118 118.74C210.795 117.936 210.407 117.159 209.957 116.419C209.087 114.968 209.957 111.777 209.957 111.777C209.957 111.777 201.543 101.042 204.154 94.3686C206.766 87.6955 212.278 72.6084 212.278 72.6084L220.692 69.1268L236.069 63.6142L243.323 61.5833Z" fill="#353535"/>
<path d="M184.715 30.2487L172.82 27.9276C172.82 27.9276 169.919 18.063 166.437 19.2235C162.955 20.384 168.758 30.2487 168.758 30.2487L185.296 37.7922L184.715 30.2487Z" fill="#A0616A"/>
<path d="M256.959 40.1133L262.182 46.7864C262.182 46.7864 269.725 46.4962 267.404 50.5581C265.083 54.62 259.861 52.2989 259.571 51.4285C259.28 50.5581 250.866 43.0146 250.866 43.0146L256.959 40.1133Z" fill="#A0616A"/>
<path d="M229.787 31.3017L222.244 37.1044L217.602 30.1411L181.625 28.1102V40.0058C190.479 37.4493 198.628 36.6573 205.126 40.0058C213.35 50.9567 215.159 62.8485 209.957 75.7687L252.418 60.8955C239.692 56.1566 233.784 49.2866 235.59 40.0058L250.387 45.2282L259.381 38.5551C251.338 33.1429 239.368 29.7485 229.787 31.3017Z" fill="#2F80ED"/>
<path d="M150 239.026C232.843 239.026 300 233.96 300 227.711C300 221.462 232.843 216.396 150 216.396C67.1573 216.396 0 221.462 0 227.711C0 233.96 67.1573 239.026 150 239.026Z" fill="#535353"/>
<path opacity="0.1" d="M108.075 234.964C164.078 234.964 209.478 231.587 209.478 227.421C209.478 223.255 164.078 219.877 108.075 219.877C52.0725 219.877 6.6731 223.255 6.6731 227.421C6.6731 231.587 52.0725 234.964 108.075 234.964Z" fill="black"/>
<path d="M271.324 212.352C270.357 220.821 275.564 228.37 275.564 228.37C275.564 228.37 282.337 222.188 283.304 213.719C284.27 205.25 279.064 197.701 279.064 197.701C279.064 197.701 272.29 203.883 271.324 212.352Z" fill="#2F2E41"/>
<path d="M275.016 211.915C278.5 219.694 275.821 228.465 275.821 228.465C275.821 228.465 267.495 224.622 264.011 216.843C260.527 209.063 263.206 200.292 263.206 200.292C263.206 200.292 271.532 204.135 275.016 211.915Z" fill="#2F80ED"/>
<path d="M181.497 227.264C199.452 227.264 214.008 212.708 214.008 194.753C214.008 176.797 199.452 162.242 181.497 162.242C163.541 162.242 148.985 176.797 148.985 194.753C148.985 212.708 163.541 227.264 181.497 227.264Z" fill="#F2F2F2"/>
<path d="M181.497 144.631L173.488 164.654L144.527 164.886L135.092 164.962L112.703 165.142L103.272 165.218L80.8823 165.399L71.4516 165.475L49.0621 165.659L39.6314 165.735L24.5182 165.855L21.5949 159.872L17.8026 152.123L15.7082 147.835L14.5068 144.631L21.695 121.865C22.3978 119.641 23.791 117.698 25.6726 116.319C27.5541 114.94 29.8262 114.197 32.1589 114.196H162.94C165.205 114.198 167.414 114.899 169.264 116.206C171.115 117.512 172.516 119.359 173.275 121.493L174.108 123.839L181.497 144.631Z" fill="#2F80ED"/>
<path d="M181.497 144.631H14.5068V186.679H181.497V144.631Z" fill="#2F80ED"/>
<path opacity="0.1" d="M181.497 144.631H14.5068V186.679H181.497V144.631Z" fill="black"/>
<path d="M183.96 86.8745H179.034V91.8005H183.96V86.8745Z" fill="#353535"/>
<path d="M197.26 192.29H192.334V197.216H197.26V192.29Z" fill="#353535"/>
<path d="M151.262 90.3692H44.3407V224.922H151.262V90.3692Z" fill="#F2F2F2"/>
<path d="M98.0018 99.9801H66.7662V104.385H98.0018V99.9801Z" fill="#353535"/>
<path d="M144.455 118.291H50.3475V120.293H144.455V118.291Z" fill="#E6E6E6"/>
<path d="M144.455 124.408H50.3475V126.41H144.455V124.408Z" fill="#E6E6E6"/>
<path d="M144.455 130.815H50.3475V132.817H144.455V130.815Z" fill="#E6E6E6"/>
<path d="M144.455 137.222H50.3475V139.225H144.455V137.222Z" fill="#E6E6E6"/>
<path d="M144.455 143.63H50.3475V145.632H144.455V143.63Z" fill="#E6E6E6"/>
<path d="M144.455 150.037H50.3475V152.039H144.455V150.037Z" fill="#E6E6E6"/>
<path d="M54.352 107.989C53.0056 107.989 51.6894 107.59 50.5699 106.842C49.4504 106.094 48.5778 105.031 48.0625 103.787C47.5473 102.543 47.4124 101.174 47.6751 99.8534C47.9378 98.5328 48.5862 97.3198 49.5383 96.3677C50.4903 95.4156 51.7034 94.7673 53.0239 94.5046C54.3445 94.2419 55.7133 94.3767 56.9573 94.892C58.2012 95.4072 59.2644 96.2798 60.0125 97.3993C60.7605 98.5189 61.1598 99.8351 61.1598 101.182C61.1578 102.986 60.4399 104.717 59.1636 105.993C57.8874 107.269 56.157 107.987 54.352 107.989ZM54.352 95.1747C53.164 95.1747 52.0027 95.527 51.0148 96.187C50.027 96.847 49.2571 97.7852 48.8025 98.8828C48.3478 99.9804 48.2289 101.188 48.4606 102.353C48.6924 103.519 49.2645 104.589 50.1046 105.429C50.9447 106.269 52.015 106.841 53.1802 107.073C54.3454 107.305 55.5532 107.186 56.6508 106.731C57.7484 106.276 58.6865 105.507 59.3466 104.519C60.0066 103.531 60.3589 102.37 60.3589 101.181C60.3571 99.5889 59.7236 98.0621 58.5975 96.936C57.4714 95.8099 55.9446 95.1765 54.352 95.1747Z" fill="#EB5757"/>
<path d="M181.497 228.326H14.5068V144.631L36.1315 161.45L160.673 160.649L181.497 144.631V228.326Z" fill="#535353"/>
<path d="M54.3521 208.904H23.1166V213.309H54.3521V208.904Z" fill="#F2F2F2"/>
<path d="M39.5085 200.632C38.8199 200.632 38.1467 200.428 37.5742 200.046C37.0016 199.663 36.5554 199.119 36.2919 198.483C36.0284 197.847 35.9594 197.147 36.0938 196.472C36.2281 195.796 36.5597 195.176 37.0466 194.689C37.5335 194.202 38.1539 193.87 38.8293 193.736C39.5046 193.602 40.2047 193.671 40.8408 193.934C41.477 194.198 42.0208 194.644 42.4033 195.217C42.7859 195.789 42.9901 196.462 42.9901 197.151C42.9891 198.074 42.6219 198.959 41.9692 199.612C41.3165 200.264 40.4315 200.631 39.5085 200.632ZM39.5085 194.249C38.9346 194.249 38.3737 194.42 37.8966 194.738C37.4194 195.057 37.0476 195.51 36.828 196.041C36.6084 196.571 36.5509 197.154 36.6629 197.717C36.7748 198.28 37.0512 198.797 37.4569 199.202C37.8627 199.608 38.3796 199.884 38.9425 199.996C39.5053 200.108 40.0886 200.051 40.6188 199.831C41.1489 199.612 41.6021 199.24 41.9209 198.763C42.2397 198.286 42.4098 197.725 42.4098 197.151C42.409 196.382 42.103 195.644 41.5591 195.1C41.0152 194.556 40.2777 194.25 39.5085 194.249Z" fill="white"/>
<path d="M243.903 101.912C243.903 101.912 245.644 108.585 246.224 108.875C246.804 109.165 253.187 114.678 248.835 115.548C244.483 116.419 241.292 116.129 240.421 115.258C239.551 114.388 239.841 113.517 238.39 113.227C236.94 112.937 234.329 112.067 234.619 110.036C234.909 108.005 236.36 102.492 237.23 101.912C238.1 101.332 243.903 101.912 243.903 101.912Z" fill="#353535"/>
<path d="M218.661 116.709C218.661 116.709 221.273 118.74 219.822 122.512C218.371 126.283 216.34 130.345 216.34 130.345C216.34 130.345 214.019 137.599 210.248 136.438C208.715 135.967 207.949 134.681 207.58 133.321C207.313 132.293 207.269 131.22 207.451 130.174C207.633 129.127 208.036 128.132 208.633 127.254L210.828 123.962L213.149 117.87L218.661 116.709Z" fill="#353535"/>
<path d="M212.293 144.799C217.494 144.799 223.929 143.076 230.2 136.848C245.551 121.602 260.135 120.073 260.281 120.059L260.226 119.481C260.079 119.495 245.288 121.045 229.791 136.436C221.828 144.345 213.608 144.829 208.116 143.843C204.487 143.184 201.032 141.791 197.961 139.75L197.618 140.218C200.754 142.306 204.284 143.733 207.99 144.41C209.41 144.667 210.85 144.797 212.293 144.799Z" fill="#353535"/>
<path d="M252.462 132.231C254.385 132.231 255.944 130.672 255.944 128.75C255.944 126.827 254.385 125.268 252.462 125.268C250.539 125.268 248.98 126.827 248.98 128.75C248.98 130.672 250.539 132.231 252.462 132.231Z" fill="#353535"/>
<path d="M227.801 148.479C229.724 148.479 231.282 146.92 231.282 144.997C231.282 143.074 229.724 141.516 227.801 141.516C225.878 141.516 224.319 143.074 224.319 144.997C224.319 146.92 225.878 148.479 227.801 148.479Z" fill="#353535"/>
<path d="M224.276 29.6262C228.122 29.6262 231.239 26.5092 231.239 22.6641C231.239 18.8191 228.122 15.7021 224.276 15.7021C220.431 15.7021 217.314 18.8191 217.314 22.6641C217.314 26.5092 220.431 29.6262 224.276 29.6262Z" fill="#A0616A"/>
<path d="M230.101 0C229.371 1.04249 228.289 1.78626 227.054 2.09443C224.924 2.66492 227.037 5.86641 227.037 5.86641C227.037 5.86641 226.268 4.70223 227.377 3.46933C228.485 2.23644 230.269 1.39353 230.101 0Z" fill="#2F2E41"/>
<path d="M226.66 9.32642C228.146 9.32642 229.352 8.12117 229.352 6.63442C229.352 5.14766 228.146 3.94241 226.66 3.94241C225.173 3.94241 223.968 5.14766 223.968 6.63442C223.968 8.12117 225.173 9.32642 226.66 9.32642Z" fill="#2F2E41"/>
<path d="M230.096 8.89074C227.902 8.06067 224.248 7.63979 222.368 7.9275L222.626 6.04483C224.433 6.97893 228.07 7.4179 230.354 7.00808L230.096 8.89074Z" fill="#3F3D56"/>
<path d="M225.27 11.0153C225.27 11.0153 222.519 15.5901 216.124 17.3027C209.728 19.0153 216.071 28.6261 216.071 28.6261C216.071 28.6261 213.765 25.1313 217.092 21.4302C220.419 17.729 225.773 15.1986 225.27 11.0153Z" fill="#2F2E41"/>
<path d="M225.488 10.7373C225.488 10.7373 228.13 17.0211 231.031 17.6151C233.932 18.2092 233.712 28.1382 229.175 29.6271C229.175 29.6271 232.483 23.8063 229.656 19.9026C226.828 15.9988 225.042 12.9129 225.488 10.7373Z" fill="#2F2E41"/>
</svg>
